<svg width="468" height="50" viewBox="0 0 468 50" fill="none" xmlns="http://www.w3.org/2000/svg">
<rect width="468" height="50" rx="8" fill="black"/>
<path d="M218.248 19.8275C216.911 19.8275 215.833 20.636 215.137 20.636C214.407 20.636 213.43 19.8724 212.273 19.8724C210.072 19.8724 207.837 21.7029 207.837 25.1282C207.837 27.2733 208.668 29.5306 209.69 31.0018C210.555 32.2259 211.33 33.2366 212.43 33.2366C213.52 33.2366 214.003 32.5179 215.362 32.5179C216.732 32.5179 217.046 33.2142 218.248 33.2142C219.45 33.2142 220.247 32.1248 220.999 31.0467C221.83 29.8001 222.19 28.5872 222.201 28.5311C222.134 28.5086 219.843 27.5765 219.843 24.9485C219.843 22.68 221.639 21.6693 221.741 21.5906C220.561 19.8724 218.753 19.8275 218.248 19.8275ZM217.63 18.3787C218.169 17.7161 218.551 16.8177 218.551 15.908C218.551 15.7845 218.54 15.6609 218.517 15.5599C217.641 15.5936 216.563 16.1439 215.923 16.8963C215.429 17.4691 214.957 18.3787 214.957 19.2884C214.957 19.4232 214.98 19.5692 214.991 19.6141C215.047 19.6253 215.137 19.6365 215.227 19.6365C216.024 19.6365 217.035 19.0975 217.63 18.3787ZM226.615 16.8289V33.0345H229.513V27.7225H233.028C236.307 27.7225 238.598 25.5213 238.598 22.3094C238.598 19.0413 236.386 16.8289 233.152 16.8289H226.615ZM229.513 19.2547H232.388C234.477 19.2547 235.656 20.3216 235.656 22.3094C235.656 24.241 234.443 25.3192 232.377 25.3192H229.513V19.2547ZM244.035 31.0467C242.8 31.0467 241.912 30.429 241.912 29.3958C241.912 28.3963 242.642 27.8348 244.203 27.7337L246.977 27.554V28.5311C246.977 29.9573 245.719 31.0467 244.035 31.0467ZM243.215 33.2366C244.821 33.2366 246.169 32.5403 246.854 31.3499H247.045V33.0345H249.729V24.6453C249.729 22.0399 247.954 20.5013 244.799 20.5013C241.879 20.5013 239.846 21.8826 239.621 24.0501H242.249C242.508 23.2191 243.384 22.7698 244.664 22.7698C246.169 22.7698 246.977 23.4437 246.977 24.6453V25.6785L243.81 25.8694C240.823 26.0491 239.15 27.3294 239.15 29.553C239.15 31.7991 240.845 33.2366 243.215 33.2366ZM252.829 37.493C255.581 37.493 256.895 36.4822 257.939 33.4276L262.375 20.7484H259.433L256.569 30.3392H256.378L253.503 20.7484H250.448L254.84 33.0906L254.694 33.6297C254.334 34.764 253.672 35.2132 252.492 35.2132C252.301 35.2132 251.886 35.202 251.729 35.1683V37.4481C251.908 37.4818 252.661 37.493 252.829 37.493Z" fill="white"/>
<rect width="468" height="50" rx="8" stroke="black"/>
</svg>
